PathFileType  4	(X/Y/Z) C:\Users\antoi\Documents\MyRepositories\mobilecap\ResultsAnalysis
DataRate	CameraRate	NumFrames	NumMarkers	Units	OrigDataRate	OrigDataStartFrame	OrigNumFrames
100.0	100.0	4	51	mm	100.0	122	139
Frame#	Time	r_knee			r_shank_antsup			r_ankle			r_calc			r_5meta			r_toe			L_knee			L_shank_antsup			L_ankle			L_calc			L_5meta			L_toe			r_sh2			r_sh3			r_sh4			L_sh2			L_sh3			r_thigh1			r_thigh2			r_thigh3			r_thigh4			r_thigh5			L_thigh1			L_thigh2			L_thigh3			L_thigh4			r.ASIS			r.PSIS			L.ASIS			L.PSIS			C7			R_Shoulder			L_Shoulder			R_Sternum			L_Sternum			R_humerus			R_elbow_med			R_elbow_lat			R_forearm			R_wrist_radius			R_wrist_ulna			L_humerus			L_elbow_med			L_elbow_lat			L_forearm			L_wrist_radius			L_wrist_ulna			R_HJC			L_HJC			R_HJC_reg			L_HJC_reg			
		X1	Y1	Z1	X2	Y2	Z2	X3	Y3	Z3	X4	Y4	Z4	X5	Y5	Z5	X6	Y6	Z6	X7	Y7	Z7	X8	Y8	Z8	X9	Y9	Z9	X10	Y10	Z10	X11	Y11	Z11	X12	Y12	Z12	X13	Y13	Z13	X14	Y14	Z14	X15	Y15	Z15	X16	Y16	Z16	X17	Y17	Z17	X18	Y18	Z18	X19	Y19	Z19	X20	Y20	Z20	X21	Y21	Z21	X22	Y22	Z22	X23	Y23	Z23	X24	Y24	Z24	X25	Y25	Z25	X26	Y26	Z26	X27	Y27	Z27	X28	Y28	Z28	X29	Y29	Z29	X30	Y30	Z30	X31	Y31	Z31	X32	Y32	Z32	X33	Y33	Z33	X34	Y34	Z34	X35	Y35	Z35	X36	Y36	Z36	X37	Y37	Z37	X38	Y38	Z38	X39	Y39	Z39	X40	Y40	Z40	X41	Y41	Z41	X42	Y42	Z42	X43	Y43	Z43	X44	Y44	Z44	X45	Y45	Z45	X46	Y46	Z46	X47	Y47	Z47	X48	Y48	Z48	X49	Y49	Z49	X50	Y50	Z50	X51	Y51	Z51	

122	1.21000000	1417.55723	520.68285	-50.52913	1462.15635	452.91887	-47.89804	1511.29235	95.33140	-80.14236	1453.68516	47.71486	-121.69447	1664.57569	45.10187	-62.86540	1691.76086	82.68079	-120.08346	1197.97376	507.10936	-322.42991	1149.71959	388.85239	-327.15088	908.79223	162.07531	-279.68826	824.89704	159.88155	-241.02486	1025.92374	50.05086	-234.92542	1005.67973	29.50489	-301.59855	1494.08812	344.37552	-45.60468	1394.52176	432.34327	-16.84775	1416.07441	319.64828	-25.39843	1085.92942	451.09259	-338.93833	1011.45788	356.27681	-331.61153	1410.62830	843.42735	-19.49566	1445.43495	739.48482	-35.83868	1403.11363	696.20603	-2.65329	1305.02988	804.10982	-6.00099	1347.49712	696.77126	-11.61621	1320.76674	818.36862	-353.61579	1315.45224	681.87612	-345.35703	1201.70106	824.99824	-351.77262	1204.66242	681.99197	-345.08553	1387.91134	1028.56089	-65.75766	1185.34302	1062.54875	-122.78750	1362.85814	1007.95004	-324.99401	1174.18253	1060.59559	-225.35152	1169.85285	1568.14743	-193.39144	1233.82692	1518.08372	-14.53383	1246.63176	1533.05729	-353.54762	1322.30654	1498.24417	-157.92553	1324.62763	1497.03336	-211.56925	1191.10546	1249.90052	76.14451	1147.54314	1163.83351	3.43321	1160.13002	1169.65000	86.35476	1194.84579	1016.36892	115.66662	1211.97940	900.41170	114.84945	1171.13271	911.53967	130.85263	1311.59142	1292.33886	-458.21225	1287.45158	1178.72671	-415.79937	1320.35605	1201.14277	-475.29097	1466.72659	1103.62527	-464.56842	1548.84537	1054.56702	-434.61109	1529.80917	1026.98432	-457.37715	1302.45589	949.69768	-57.69845	1279.33627	934.42973	-286.39889	1312.81232	942.60520	-93.06192	1294.16037	939.35242	-264.43364	
123	1.22000000	1427.72297	521.70279	-49.09999	1471.65985	453.07786	-46.90500	1514.51848	94.77298	-79.60366	1455.00909	49.23731	-121.48447	1666.14337	40.97807	-63.02394	1694.45373	77.77143	-120.33859	1220.21855	506.73376	-324.64382	1168.60927	390.30632	-330.30258	920.55851	171.50952	-280.74485	837.28130	175.53639	-241.43876	1029.38063	51.26910	-235.27851	1006.99955	31.33111	-301.45110	1502.04643	344.07825	-44.84396	1404.32543	433.46688	-14.65654	1424.11763	320.52516	-23.25677	1106.72190	455.01599	-339.68233	1028.94265	362.94558	-331.97399	1423.38869	844.89819	-18.03316	1457.23664	740.59391	-34.45578	1415.09971	697.79842	-0.46840	1317.64513	806.34762	-3.73289	1359.23941	698.62895	-9.11695	1338.20036	819.03578	-352.69867	1335.26024	682.37468	-346.32367	1219.19394	823.64566	-350.16564	1224.63638	680.68145	-345.41545	1402.03565	1030.56910	-64.16072	1199.48274	1064.14072	-121.95047	1377.70529	1008.54815	-323.11439	1188.74150	1061.03791	-224.71705	1182.30691	1568.93290	-191.64244	1246.87783	1518.92449	-12.93082	1258.28606	1534.32753	-352.04443	1335.06367	1499.59855	-156.47413	1337.20033	1498.48779	-210.19754	1205.70187	1250.41990	77.53695	1162.43848	1164.37041	4.92026	1175.10956	1169.94735	87.73893	1211.37523	1016.88467	116.58690	1229.78557	901.13959	115.42400	1188.85780	911.77677	131.46568	1321.76356	1292.72735	-456.42772	1296.80464	1179.37638	-413.68631	1329.54175	1201.47167	-473.33331	1474.30249	1101.60791	-463.26244	1555.80416	1051.21731	-433.69611	1536.15731	1023.93857	-456.47012	1316.63807	951.69562	-55.83177	1294.29485	934.97170	-284.49869	1326.80550	945.17568	-90.82533	1308.89898	940.01698	-262.08012	
124	1.23000000	1437.41313	522.84932	-47.72741	1480.57694	453.34947	-45.92051	1517.05130	94.33979	-79.20429	1456.05169	50.42011	-121.32523	1667.26805	37.95629	-62.99640	1696.39549	73.80405	-120.56893	1243.70271	506.23671	-326.96052	1189.05067	391.98000	-333.46600	934.08718	181.63463	-281.99962	851.78857	192.12206	-242.21257	1033.66405	53.42688	-235.68775	1009.07246	34.26417	-301.34976	1509.34342	343.90622	-44.14775	1413.52883	434.73736	-12.52759	1431.52287	321.54556	-21.17550	1129.22746	458.98560	-340.76878	1048.27528	369.74707	-332.50159	1436.12328	846.65342	-16.39937	1469.12977	742.06502	-33.08015	1426.99991	699.61833	1.25325	1330.19669	808.78415	-1.43506	1370.80873	700.58826	-6.88684	1355.71336	819.81013	-352.03561	1355.59473	683.03453	-347.67255	1236.82426	821.99256	-348.48171	1245.17876	679.15450	-345.91894	1415.70606	1032.73957	-62.40749	1213.22349	1065.86850	-121.24624	1392.24747	1009.17940	-321.06966	1202.95718	1061.62175	-224.21931	1194.72947	1569.82597	-189.89005	1259.86736	1519.89884	-11.38061	1269.81840	1535.79047	-350.61898	1347.78403	1501.09624	-155.06311	1349.75343	1500.09146	-208.87661	1220.45075	1251.07124	78.89479	1177.50443	1164.92358	6.45818	1190.28161	1170.36544	89.17804	1228.33785	1017.57928	117.53082	1248.21590	902.10026	116.00514	1207.19024	912.17115	132.10898	1331.76454	1293.21565	-454.63168	1305.93165	1180.24241	-411.50921	1338.54963	1201.95292	-471.33818	1481.47756	1099.55382	-461.98082	1562.27016	1047.66852	-432.89904	1541.93817	1020.73903	-455.67031	1330.29433	953.87992	-53.88637	1308.95000	935.58198	-282.51886	1340.37234	947.83392	-88.48632	1323.30419	940.78772	-259.61051	
125	1.24000000	1446.43315	524.01609	-46.46720	1488.72343	453.66523	-45.02627	1518.96537	94.03974	-79.01057	1456.81786	51.26219	-121.23662	1668.03640	35.94479	-62.90165	1697.69413	70.74708	-120.88661	1268.27289	505.67590	-329.21671	1210.94249	393.81520	-336.44380	949.38249	192.36238	-283.44519	868.50677	209.39173	-243.36295	1038.90082	56.56499	-236.15452	1012.06469	38.44494	-301.30063	1515.83994	343.79878	-43.59238	1421.90970	436.04505	-10.64271	1438.10355	322.59894	-19.39341	1153.33252	462.96123	-342.17430	1069.41417	376.59957	-333.14314	1448.85509	848.54297	-14.65928	1481.06087	743.71441	-31.72958	1438.67324	701.53086	2.42056	1342.65668	811.36437	0.75778	1382.07799	702.54678	-5.06073	1373.12537	820.69097	-351.65010	1376.25387	683.87724	-349.32583	1254.45257	820.02914	-346.68469	1266.07533	677.45979	-346.43533	1428.94126	1035.02575	-60.58599	1226.56579	1067.66236	-120.65045	1406.41399	1009.80721	-318.95262	1216.77080	1062.28138	-223.79998	1207.13527	1570.82258	-188.16389	1272.82788	1520.97827	-9.89349	1281.30120	1537.39015	-349.25500	1360.48073	1502.67490	-153.71485	1362.29303	1501.77134	-207.61495	1235.34517	1251.83862	80.22504	1192.75940	1165.43393	7.99857	1205.64752	1170.88226	90.66183	1245.71960	1018.43595	118.49112	1267.22955	903.27757	116.59206	1226.09493	912.72578	132.77686	1341.59297	1293.77170	-452.84793	1314.80696	1181.30333	-409.27855	1347.36961	1202.54485	-469.31345	1488.25828	1097.45952	-460.71644	1568.23102	1043.90808	-432.23411	1547.15066	1017.40398	-454.96414	1343.47532	956.18874	-51.90681	1323.23630	936.21446	-280.49343	1353.55237	950.52655	-86.09720	1337.31118	941.61585	-257.07361	
